<?xml version="1.0" encoding="utf-8"?>
<!-- Generator: Adobe Illustrator 16.0.0, SVG Export Plug-In . SVG Version: 6.00 Build 0)  -->
<!DOCTYPE svg PUBLIC "-//W3C//DTD SVG 1.1//EN" "http://www.w3.org/Graphics/SVG/1.1/DTD/svg11.dtd">
<svg version="1.1" id="Layer_1" xmlns="http://www.w3.org/2000/svg" xmlns:xlink="http://www.w3.org/1999/xlink" x="0px" y="0px"
	 width="43px" height="35px" viewBox="0 0 43 35" enable-background="new 0 0 43 35" xml:space="preserve">
<g>
	<g>
		<path d="M26.608,30.997c-0.005,0-0.013,0-0.02,0H16.42c-0.276,0-0.5-0.224-0.5-0.5c0-2.933,2.344-7.282,5.583-7.282
			c3.187,0,5.508,4.207,5.584,7.136c0.015,0.046,0.021,0.096,0.021,0.146C27.108,30.773,26.885,30.997,26.608,30.997z
			 M16.946,29.997h9.118c-0.244-2.46-2.194-5.782-4.561-5.782C19.138,24.215,17.189,27.537,16.946,29.997z"/>
	</g>
	<g>
		<path d="M21.503,21.954c-2.148,0-3.895-1.744-3.895-3.889c0-2.148,1.747-3.896,3.895-3.896c2.146,0,3.892,1.748,3.892,3.896
			C25.395,20.21,23.648,21.954,21.503,21.954z M21.503,15.17c-1.596,0-2.895,1.299-2.895,2.896c0,1.593,1.299,2.889,2.895,2.889
			c1.595,0,2.892-1.296,2.892-2.889C24.395,16.469,23.098,15.17,21.503,15.17z"/>
	</g>
	<g>
		<path d="M15.509,23.991c-0.128,0-0.256-0.049-0.354-0.146c-3.495-3.502-3.495-9.198,0-12.697c1.695-1.695,3.95-2.629,6.348-2.629
			s4.653,0.934,6.348,2.629c3.5,3.5,3.5,9.195,0,12.697c-0.195,0.195-0.512,0.195-0.707,0s-0.195-0.512,0-0.707
			c3.11-3.112,3.11-8.173,0-11.283c-1.506-1.506-3.509-2.336-5.641-2.336c-2.131,0-4.135,0.83-5.641,2.336
			c-3.105,3.109-3.105,8.172,0,11.283c0.195,0.195,0.195,0.513-0.001,0.707C15.764,23.942,15.637,23.991,15.509,23.991z"/>
	</g>
	<g>
		<path d="M12.311,27.188c-0.128,0-0.256-0.049-0.354-0.146c-2.55-2.55-3.955-5.939-3.955-9.545c0-3.606,1.405-6.997,3.955-9.547
			c5.264-5.263,13.829-5.263,19.092,0c5.263,5.265,5.263,13.83,0,19.092c-0.195,0.195-0.512,0.195-0.707,0s-0.195-0.512,0-0.707
			c4.873-4.873,4.873-12.804,0-17.678c-4.873-4.873-12.805-4.874-17.678,0c-2.361,2.361-3.662,5.5-3.662,8.84
			c0,3.338,1.301,6.478,3.662,8.838c0.195,0.195,0.195,0.512,0,0.707C12.567,27.14,12.439,27.188,12.311,27.188z"/>
	</g>
</g>
</svg>
