<?xml version="1.0" encoding="utf-8"?>
<!-- Generator: Adobe Illustrator 16.0.0, SVG Export Plug-In . SVG Version: 6.00 Build 0)  -->
<!DOCTYPE svg PUBLIC "-//W3C//DTD SVG 1.1//EN" "http://www.w3.org/Graphics/SVG/1.1/DTD/svg11.dtd">
<svg version="1.1" id="Layer_1" xmlns="http://www.w3.org/2000/svg" xmlns:xlink="http://www.w3.org/1999/xlink" x="0px" y="0px"
	 width="43px" height="35px" viewBox="0 0 43 35" enable-background="new 0 0 43 35" xml:space="preserve">
<g>
	<path fill="none" stroke="#000000" stroke-linecap="round" stroke-linejoin="round" stroke-miterlimit="10" d="M28.848,28.239
		c0,1.248-1.011,2.261-2.261,2.261H16.413c-1.249,0-2.261-1.013-2.261-2.261V6.761c0-1.249,1.012-2.261,2.261-2.261h10.174
		c1.25,0,2.261,1.012,2.261,2.261V28.239z"/>
	
		<line fill="none" stroke="#000000" stroke-linecap="round" stroke-linejoin="round" stroke-miterlimit="10" x1="28.848" y1="25.979" x2="14.152" y2="25.979"/>
	
		<line fill="none" stroke="#000000" stroke-linecap="round" stroke-linejoin="round" stroke-miterlimit="10" x1="28.848" y1="9.022" x2="14.152" y2="9.022"/>
	
		<line fill="none" stroke="#000000" stroke-linecap="round" stroke-linejoin="round" stroke-miterlimit="10" x1="18.674" y1="6.761" x2="24.326" y2="6.761"/>
	<path fill="none" stroke="#000000" stroke-linejoin="round" stroke-miterlimit="10" d="M21.5,28.805
		c-0.312,0-0.565-0.253-0.565-0.565l0,0c0-0.312,0.253-0.565,0.565-0.565l0,0c0.312,0,0.565,0.253,0.565,0.565l0,0
		C22.065,28.552,21.812,28.805,21.5,28.805L21.5,28.805z"/>
</g>
</svg>
