<?xml version="1.0" encoding="utf-8"?>
<!-- Generator: Adobe Illustrator 16.0.0, SVG Export Plug-In . SVG Version: 6.00 Build 0)  -->
<!DOCTYPE svg PUBLIC "-//W3C//DTD SVG 1.1//EN" "http://www.w3.org/Graphics/SVG/1.1/DTD/svg11.dtd">
<svg version="1.1" id="Layer_1" xmlns="http://www.w3.org/2000/svg" xmlns:xlink="http://www.w3.org/1999/xlink" x="0px" y="0px"
	 width="43px" height="35px" viewBox="0 0 43 35" enable-background="new 0 0 43 35" xml:space="preserve">
<g>
	<path fill="none" stroke="#000000" stroke-linecap="round" stroke-linejoin="round" stroke-miterlimit="10" d="M25.182,18.033
		c2.041-1.307,3.396-3.585,3.396-6.186c0-4.058-3.295-7.348-7.361-7.348c-4.065,0-7.361,3.29-7.361,7.348
		c0,2.601,1.356,4.879,3.397,6.186"/>
	<path fill="none" stroke="#000000" stroke-linejoin="round" stroke-miterlimit="10" d="M19.518,12.961
		c0-0.928,0.77-1.678,1.699-1.678c0.938,0,1.699,0.759,1.699,1.695v6.782l5.023,1.696c1.119,0.359,1.372,1.68,1.109,2.825
		L27.893,30.5h-9.042l-4.548-6.782c-0.513-0.784-0.529-2.261,0.604-2.261c1.131,0,2.346,0.474,4.61,3.956V12.961z"/>
</g>
</svg>
