<?xml version="1.0" encoding="utf-8"?>
<!-- Generator: Adobe Illustrator 16.0.0, SVG Export Plug-In . SVG Version: 6.00 Build 0)  -->
<!DOCTYPE svg PUBLIC "-//W3C//DTD SVG 1.1//EN" "http://www.w3.org/Graphics/SVG/1.1/DTD/svg11.dtd">
<svg version="1.1" id="Layer_1" xmlns="http://www.w3.org/2000/svg" xmlns:xlink="http://www.w3.org/1999/xlink" x="0px" y="0px"
	 width="43px" height="35px" viewBox="0 0 43 35" enable-background="new 0 0 43 35" xml:space="preserve">
<g>
	<g>
		<path d="M23.982,25.673H9.668c-0.276,0-0.5-0.224-0.5-0.5s0.224-0.5,0.5-0.5h14.314c0.276,0,0.5,0.224,0.5,0.5
			S24.259,25.673,23.982,25.673z"/>
	</g>
	<g>
		<path d="M16.428,25.673c-0.276,0-0.5-0.224-0.5-0.5v-2.38c0-0.276,0.224-0.5,0.5-0.5s0.5,0.224,0.5,0.5v2.38
			C16.928,25.449,16.704,25.673,16.428,25.673z"/>
	</g>
	<g>
		<rect x="4.898" y="18.312" width="23.061" height="1"/>
	</g>
	<g>
		<path d="M26.369,23.293H6.493c-1.155,0-2.095-0.941-2.095-2.098V6.091C4.398,4.938,5.337,4,6.493,4h19.876
			c1.151,0,2.088,0.938,2.088,2.091v15.104c0.001,0.557-0.218,1.084-0.615,1.483C27.446,23.074,26.923,23.293,26.369,23.293z
			 M6.493,5C5.889,5,5.398,5.489,5.398,6.091v15.104c0,0.605,0.491,1.098,1.095,1.098h19.876c0.591,0,1.09-0.503,1.09-1.098
			L27.457,6.091C27.457,5.489,26.969,5,26.369,5H6.493z"/>
	</g>
	<g>
		<path d="M31.89,31L31.89,31c-0.874,0-1.64-0.768-1.64-1.643v-9.611c0-0.87,0.766-1.633,1.639-1.633h5.078
			c0.871,0,1.635,0.757,1.635,1.619v9.625c0,0.869-0.764,1.631-1.635,1.631L31.89,31z M31.889,19.113
			c-0.311,0-0.639,0.325-0.639,0.633v9.611c0,0.318,0.322,0.643,0.638,0.643l5.078-0.012c0.315,0,0.636-0.318,0.636-0.631v-9.625
			c0-0.312-0.314-0.619-0.635-0.619H31.889z"/>
	</g>
	<g>
		<rect x="30.762" y="20.502" width="7.34" height="0.75"/>
	</g>
	<g>
		<rect x="30.762" y="27.852" width="7.34" height="0.75"/>
	</g>
</g>
</svg>
