<?xml version="1.0" standalone="no"?>
<!DOCTYPE svg PUBLIC "-//W3C//DTD SVG 20010904//EN"
 "http://www.w3.org/TR/2001/REC-SVG-20010904/DTD/svg10.dtd">
<svg version="1.0" xmlns="http://www.w3.org/2000/svg"
 width="16.000000pt" height="16.000000pt" viewBox="0 0 16.000000 16.000000"
 preserveAspectRatio="xMidYMid meet">
<metadata>
Created by potrace 1.11, written by Peter Selinger 2001-2013
</metadata>
<g transform="translate(0.000000,16.000000) scale(0.002286,-0.002286)"
fill="#000000" stroke="none">
<path d="M3298 6996 c-1 -2 -41 -6 -88 -9 -126 -9 -230 -24 -435 -62 -16 -3
-38 -8 -47 -11 -16 -5 -38 -10 -85 -20 -12 -2 -33 -8 -45 -13 -13 -5 -27 -9
-33 -10 -100 -15 -400 -128 -610 -231 -424 -208 -769 -476 -1119 -870 -178
-200 -400 -549 -522 -822 -49 -108 -70 -160 -129 -318 -48 -130 -136 -504
-151 -641 -3 -29 -7 -65 -10 -79 -25 -145 -24 -746 1 -823 2 -6 6 -37 9 -67 3
-30 8 -66 11 -80 3 -14 8 -45 11 -70 3 -24 7 -47 9 -51 2 -3 6 -19 9 -35 14
-78 69 -281 101 -378 222 -664 594 -1193 1166 -1661 58 -47 218 -159 312 -218
261 -164 571 -301 887 -394 129 -37 370 -88 475 -99 28 -3 59 -7 70 -9 95 -20
530 -26 715 -11 115 9 131 11 223 26 40 6 83 13 97 16 14 2 71 13 128 25 l103
22 -33 35 c-18 19 -517 519 -1108 1111 -637 638 -1098 1107 -1133 1153 -198
265 -314 542 -358 858 -16 119 -16 366 0 485 74 530 383 1001 839 1285 198
122 451 216 662 245 25 3 63 9 85 12 66 11 355 7 430 -5 39 -6 86 -14 105 -16
19 -3 56 -12 83 -20 26 -8 47 -12 47 -10 0 8 211 -71 295 -111 311 -145 580
-387 767 -687 113 -181 217 -454 235 -613 2 -22 8 -53 12 -70 16 -62 20 -303
8 -440 -6 -65 -25 -170 -52 -287 -2 -9 -18 -58 -35 -110 -183 -537 -618 -960
-1165 -1133 l-120 -38 648 -646 c356 -355 649 -647 651 -649 2 -2 62 33 133
77 322 204 542 391 813 696 64 71 202 257 275 370 314 484 503 1034 553 1610
13 158 5 634 -13 720 -2 11 -7 40 -10 65 -3 25 -7 56 -10 70 -6 27 -11 54 -20
110 -33 195 -130 513 -212 700 -267 608 -667 1103 -1193 1480 -433 310 -968
530 -1475 606 -27 4 -52 8 -55 9 -3 1 -41 5 -85 10 -44 4 -89 10 -100 12 -26
4 -512 12 -517 9z"/>
</g>
</svg>
