<?xml version="1.0" encoding="utf-8"?>
<!-- Generator: Adobe Illustrator 16.0.0, SVG Export Plug-In . SVG Version: 6.00 Build 0)  -->
<!DOCTYPE svg PUBLIC "-//W3C//DTD SVG 1.1//EN" "http://www.w3.org/Graphics/SVG/1.1/DTD/svg11.dtd">
<svg version="1.1" id="Layer_1" xmlns="http://www.w3.org/2000/svg" xmlns:xlink="http://www.w3.org/1999/xlink" x="0px" y="0px"
	 width="26px" height="26px" viewBox="-1 -1 26 26" enable-background="new -1 -1 26 26" xml:space="preserve">
<g>
	<path d="M12,0c6.617,0,12,5.383,12,12c0,6.617-5.383,12-12,12S0,18.617,0,12C0,5.383,5.383,0,12,0 M12-1C4.82-1-1,4.82-1,12
		c0,7.18,5.82,13,13,13c7.18,0,13-5.82,13-13C25,4.82,19.18-1,12-1L12-1z"/>
</g>
<g>
	<path d="M17.482,12.36c-0.029-0.448-0.182-0.788-0.451-1.02c-0.266-0.233-0.6-0.346-0.997-0.346c-0.419,0-0.779,0.121-1.007,0.368
		c-0.234,0.246-0.388,0.579-0.446,0.998 M19.173,12.193c0.057,0.295,0.057,0.722,0.057,1.28h-4.697
		c0.035,0.651,0.253,1.097,0.68,1.358c0.253,0.167,0.565,0.243,0.933,0.243c0.384,0,0.695-0.101,0.917-0.293
		c0.146-0.108,0.261-0.253,0.363-0.447h1.721c-0.044,0.388-0.255,0.77-0.638,1.167c-0.562,0.637-1.374,0.943-2.413,0.943
		c-0.86,0-1.612-0.27-2.285-0.797c-0.636-0.53-0.968-1.39-0.968-2.583c0-1.118,0.294-1.986,0.888-2.565
		c0.594-0.6,1.359-0.896,2.307-0.896c0.557,0,1.062,0.101,1.51,0.304c0.448,0.203,0.826,0.515,1.115,0.955
		C18.927,11.247,19.095,11.688,19.173,12.193 M10.251,13.659c0-0.468-0.195-0.793-0.569-0.969c-0.212-0.093-0.516-0.145-0.904-0.163
		H6.846v2.412h1.901c0.391,0,0.694-0.052,0.911-0.157C10.056,14.587,10.251,14.21,10.251,13.659 M6.846,11.051h1.901
		c0.391,0,0.723-0.072,0.956-0.226c0.245-0.143,0.36-0.41,0.36-0.785c0-0.407-0.158-0.696-0.478-0.833
		c-0.28-0.096-0.638-0.139-1.062-0.139H6.846 M11.8,12.466c0.231,0.362,0.346,0.802,0.346,1.315c0,0.554-0.146,1.012-0.396,1.44
		c-0.176,0.28-0.386,0.513-0.64,0.711c-0.287,0.206-0.628,0.367-1.019,0.447c-0.391,0.074-0.807,0.12-1.264,0.12H4.771v-9h4.34
		c1.106,0.022,1.877,0.325,2.334,0.962c0.273,0.385,0.412,0.839,0.412,1.375c0,0.549-0.139,0.989-0.412,1.323
		c-0.167,0.188-0.383,0.362-0.687,0.512C11.214,11.839,11.56,12.106,11.8,12.466 M17.828,8.78h-3.623V7.877h3.623V8.78z"/>
</g>
</svg>
