<?xml version="1.0" encoding="utf-8"?>
<!-- Generator: Adobe Illustrator 16.0.0, SVG Export Plug-In . SVG Version: 6.00 Build 0)  -->
<!DOCTYPE svg PUBLIC "-//W3C//DTD SVG 1.1//EN" "http://www.w3.org/Graphics/SVG/1.1/DTD/svg11.dtd" [
	<!ENTITY ns_extend "http://ns.adobe.com/Extensibility/1.0/">
	<!ENTITY ns_ai "http://ns.adobe.com/AdobeIllustrator/10.0/">
	<!ENTITY ns_graphs "http://ns.adobe.com/Graphs/1.0/">
	<!ENTITY ns_vars "http://ns.adobe.com/Variables/1.0/">
	<!ENTITY ns_imrep "http://ns.adobe.com/ImageReplacement/1.0/">
	<!ENTITY ns_sfw "http://ns.adobe.com/SaveForWeb/1.0/">
	<!ENTITY ns_custom "http://ns.adobe.com/GenericCustomNamespace/1.0/">
	<!ENTITY ns_adobe_xpath "http://ns.adobe.com/XPath/1.0/">
]>
<svg version="1.1" id="Layer_1" xmlns:x="&ns_extend;" xmlns:i="&ns_ai;" xmlns:graph="&ns_graphs;"
	 xmlns="http://www.w3.org/2000/svg" xmlns:xlink="http://www.w3.org/1999/xlink" x="0px" y="0px" width="24px" height="24px"
	 viewBox="0 0 24 24" enable-background="new 0 0 24 24" xml:space="preserve">
<metadata>
	<sfw  xmlns="&ns_sfw;">
		<slices></slices>
		<sliceSourceBounds  x="6.5" y="7.5" height="16" width="16" bottomLeftOrigin="true"></sliceSourceBounds>
	</sfw>
</metadata>
<path d="M15.537,17.135c-0.338-1.533-0.736-2.951-1.139-4.199c0.402-0.055,0.801-0.086,1.266-0.086h0.016l0,0l0,0
	c0.744,0,1.562,0.096,2.449,0.295C17.822,14.801,16.865,16.215,15.537,17.135 M12,18.241c-1.393,0-2.672-0.456-3.712-1.233
	c0.224-0.359,0.696-1.057,1.457-1.776c0.767-0.743,1.855-1.511,3.24-1.968c0.473,1.338,0.902,2.855,1.23,4.569
	C13.527,18.097,12.801,18.241,12,18.241 M5.761,12c0-0.032,0-0.056,0-0.088c0.175,0.008,0.407,0.008,0.68,0.008h0.008
	c1.248-0.008,3.438-0.111,5.664-0.807c0.119,0.264,0.239,0.535,0.36,0.823C10.984,12.432,9.816,13.225,8.952,14
	c-0.823,0.769-1.392,1.512-1.72,2C6.32,14.93,5.761,13.527,5.761,12 M9.239,6.4c0.441,0.519,1.304,1.648,2.233,3.4
	c-1.873,0.567-3.785,0.695-4.929,0.695c-0.032,0-0.063,0-0.095,0H6.44c-0.193,0-0.36,0-0.497-0.008C6.4,8.696,7.6,7.199,9.239,6.4
	 M12,5.761c1.473,0,2.822,0.511,3.887,1.368C15.07,8.113,14,8.801,12.822,9.32C12,7.736,11.199,6.6,10.672,5.903
	C11.104,5.816,11.543,5.761,12,5.761 M16.903,8.145c0.776,0.992,1.264,2.224,1.328,3.56c-0.903-0.192-1.753-0.28-2.552-0.28l0,0
	h-0.008c-0.64,0-1.241,0.056-1.807,0.151c-0.139-0.336-0.264-0.656-0.418-0.968C14.711,10.056,15.92,9.264,16.903,8.145 M12,4
	c-4.418,0-8,3.582-8,8s3.582,8,8,8s8-3.582,8-8S16.418,4,12,4z"/>
</svg>
