<?xml version="1.0" encoding="utf-8"?>
<!-- Generator: Adobe Illustrator 16.0.0, SVG Export Plug-In . SVG Version: 6.00 Build 0)  -->
<!DOCTYPE svg PUBLIC "-//W3C//DTD SVG 1.1//EN" "http://www.w3.org/Graphics/SVG/1.1/DTD/svg11.dtd">
<svg version="1.1" id="Layer_1" xmlns="http://www.w3.org/2000/svg" xmlns:xlink="http://www.w3.org/1999/xlink" x="0px" y="0px"
	 width="26px" height="26px" viewBox="-5 -5 26 26" enable-background="new -5 -5 26 26" xml:space="preserve">
<path d="M10.61,6.316H8.696V4.92c0-0.429,0.444-0.528,0.65-0.528s1.237,0,1.237,0V2.507L9.166,2.5c-1.933,0-2.373,1.405-2.373,2.306
	v1.51H5.39v1.941h1.403c0,2.492,0,5.242,0,5.242h1.903c0,0,0-2.777,0-5.242h1.618L10.61,6.316z"/>
<g>
	<path d="M8-4c6.617,0,12,5.383,12,12c0,6.617-5.383,12-12,12C1.383,20-4,14.617-4,8C-4,1.383,1.383-4,8-4 M8-5C0.82-5-5,0.82-5,8
		c0,7.18,5.82,13,13,13c7.18,0,13-5.82,13-13C21,0.82,15.18-5,8-5L8-5z"/>
</g>
</svg>
