<?xml version="1.0" encoding="utf-8"?>
<!-- Generator: Adobe Illustrator 16.0.0, SVG Export Plug-In . SVG Version: 6.00 Build 0)  -->
<!DOCTYPE svg PUBLIC "-//W3C//DTD SVG 1.1//EN" "http://www.w3.org/Graphics/SVG/1.1/DTD/svg11.dtd" [
	<!ENTITY ns_extend "http://ns.adobe.com/Extensibility/1.0/">
	<!ENTITY ns_ai "http://ns.adobe.com/AdobeIllustrator/10.0/">
	<!ENTITY ns_graphs "http://ns.adobe.com/Graphs/1.0/">
	<!ENTITY ns_vars "http://ns.adobe.com/Variables/1.0/">
	<!ENTITY ns_imrep "http://ns.adobe.com/ImageReplacement/1.0/">
	<!ENTITY ns_sfw "http://ns.adobe.com/SaveForWeb/1.0/">
	<!ENTITY ns_custom "http://ns.adobe.com/GenericCustomNamespace/1.0/">
	<!ENTITY ns_adobe_xpath "http://ns.adobe.com/XPath/1.0/">
]>
<svg version="1.1" id="Layer_1" xmlns:x="&ns_extend;" xmlns:i="&ns_ai;" xmlns:graph="&ns_graphs;"
	 xmlns="http://www.w3.org/2000/svg" xmlns:xlink="http://www.w3.org/1999/xlink" x="0px" y="0px" width="16px" height="16.001px"
	 viewBox="6.75 4 16 16.001" enable-background="new 6.75 4 16 16.001" xml:space="preserve">
<metadata>
	<sfw  xmlns="&ns_sfw;">
		<slices></slices>
		<sliceSourceBounds  x="9.25" y="7.499" height="16.001" width="16" bottomLeftOrigin="true"></sliceSourceBounds>
	</sfw>
</metadata>
<path d="M11.39,4h6.721c2.559,0,4.639,2.081,4.639,4.64v6.721c0,2.562-2.077,4.64-4.641,4.64H11.39C8.831,20,6.75,17.92,6.75,15.359
	V8.64C6.75,6.077,8.827,4,11.39,4 M11.229,5.6c-1.59,0-2.879,1.289-2.879,2.879l0,0v7.042c0,1.593,1.286,2.875,2.879,2.875h7.042
	c1.59,0,2.875-1.285,2.875-2.875l0,0V8.479c0-1.594-1.282-2.879-2.875-2.879H11.229 M18.949,6.802c0.554,0,1,0.442,1,1
	c0,0.55-0.446,1-1,1c-0.555,0-1-0.45-1-1C17.949,7.245,18.396,6.802,18.949,6.802 M14.75,8c2.208,0,4,1.792,4,4s-1.792,4-4,4
	s-4-1.792-4-4S12.542,8,14.75,8 M14.75,9.6c-1.323,0-2.4,1.078-2.4,2.4c0,1.324,1.078,2.396,2.4,2.396
	c1.324,0,2.396-1.071,2.396-2.396C17.146,10.677,16.074,9.6,14.75,9.6z"/>
</svg>
