<?xml version="1.0" encoding="utf-8"?>
<!-- Generator: Adobe Illustrator 16.0.0, SVG Export Plug-In . SVG Version: 6.00 Build 0)  -->
<!DOCTYPE svg PUBLIC "-//W3C//DTD SVG 1.1//EN" "http://www.w3.org/Graphics/SVG/1.1/DTD/svg11.dtd">
<svg version="1.1" id="Layer_1" xmlns="http://www.w3.org/2000/svg" xmlns:xlink="http://www.w3.org/1999/xlink" x="0px" y="0px"
	 width="26px" height="26px" viewBox="-5 -5 26 26" enable-background="new -5 -5 26 26" xml:space="preserve">
<path d="M13.5,12.667h-2.443V8.542c0-0.651-0.73-1.185-1.375-1.185c-0.648,0-1.071,0.534-1.071,1.185v4.125H6.166V5.333H8.61v1.224
	c0.405-0.654,1.443-1.076,2.14-1.076c1.529,0,2.75,1.246,2.75,2.754V12.667 M4.945,12.667H2.5V5.333h2.445V12.667 M3.722,1.667
	c0.676,0,1.224,0.547,1.224,1.222c0,0.675-0.547,1.223-1.223,1.223C3.047,4.112,2.5,3.565,2.5,2.889
	C2.5,2.214,3.047,1.667,3.722,1.667z"/>
<g>
	<path d="M8-4c6.617,0,12,5.383,12,12c0,6.617-5.383,12-12,12C1.383,20-4,14.617-4,8C-4,1.383,1.383-4,8-4 M8-5C0.82-5-5,0.82-5,8
		S0.82,21,8,21s13-5.82,13-13S15.18-5,8-5L8-5z"/>
</g>
</svg>
