<?xml version="1.0" encoding="utf-8"?>
<!-- Generator: Adobe Illustrator 16.0.0, SVG Export Plug-In . SVG Version: 6.00 Build 0)  -->
<!DOCTYPE svg PUBLIC "-//W3C//DTD SVG 1.1//EN" "http://www.w3.org/Graphics/SVG/1.1/DTD/svg11.dtd" [
	<!ENTITY ns_extend "http://ns.adobe.com/Extensibility/1.0/">
	<!ENTITY ns_ai "http://ns.adobe.com/AdobeIllustrator/10.0/">
	<!ENTITY ns_graphs "http://ns.adobe.com/Graphs/1.0/">
	<!ENTITY ns_vars "http://ns.adobe.com/Variables/1.0/">
	<!ENTITY ns_imrep "http://ns.adobe.com/ImageReplacement/1.0/">
	<!ENTITY ns_sfw "http://ns.adobe.com/SaveForWeb/1.0/">
	<!ENTITY ns_custom "http://ns.adobe.com/GenericCustomNamespace/1.0/">
	<!ENTITY ns_adobe_xpath "http://ns.adobe.com/XPath/1.0/">
]>
<svg version="1.1" id="Layer_1" xmlns:x="&ns_extend;" xmlns:i="&ns_ai;" xmlns:graph="&ns_graphs;"
	 xmlns="http://www.w3.org/2000/svg" xmlns:xlink="http://www.w3.org/1999/xlink" x="0px" y="0px" width="26px" height="26px"
	 viewBox="0 0 26 26" enable-background="new 0 0 26 26" xml:space="preserve">
<metadata>
	<sfw  xmlns="&ns_sfw;">
		<slices></slices>
		<sliceSourceBounds  width="26" height="26" y="407.5" x="284.5" bottomLeftOrigin="true"></sliceSourceBounds>
	</sfw>
</metadata>
<g>
	<g>
		<path d="M13,1c6.6171875,0,12,5.3828125,12,12s-5.3828125,12-12,12S1,19.6171875,1,13S6.3828125,1,13,1 M13,0
			C5.8198242,0,0,5.8198242,0,13c0,7.1796875,5.8198242,13,13,13c7.1796875,0,13-5.8203125,13-13C26,5.8198242,20.1796875,0,13,0
			L13,0z"/>
	</g>
	<path d="M10.4882812,18.5c5.1083984,0,7.9023438-4.2324219,7.9023438-7.9023438c0-0.1201172,0-0.2397461-0.0078125-0.3588867
		c0.5429688-0.3930664,1.0126953-0.8798828,1.3857422-1.4375c-0.5068359,0.2246094-1.0449219,0.371582-1.5957031,0.4370117
		c0.5800781-0.347168,1.0146484-0.8930664,1.2216797-1.5366211c-0.5449219,0.3237305-1.1425781,0.5517578-1.7636719,0.6743164
		c-1.0527344-1.1186523-2.8115234-1.1723633-3.9296875-0.1206055c-0.7216797,0.6782227-1.027832,1.6894531-0.8041992,2.6538086
		c-2.2329102-0.1118164-4.3134766-1.1669922-5.7241211-2.9018555C6.4355469,9.2763672,6.8125,10.8999023,8.0327148,11.7148438
		c-0.4418945-0.0131836-0.8740234-0.1323242-1.2602539-0.3476562c0,0.0112305,0,0.0234375,0,0.0351562
		c0,1.3222656,0.9321289,2.4609375,2.2280273,2.7226562c-0.4086914,0.1113281-0.8378906,0.1279297-1.2539062,0.0478516
		c0.3637695,1.1318359,1.40625,1.90625,2.5947266,1.9287109C9.3579102,16.875,8.1425781,17.2939453,6.8920898,17.2929688
		c-0.2211914,0-0.4418945-0.0136719-0.6611328-0.0400391C7.5009766,18.0683594,8.9790039,18.5,10.4882812,18.4980469"/>
</g>
</svg>
