<?xml version="1.0" encoding="utf-8"?>
<!-- Generator: Adobe Illustrator 16.0.0, SVG Export Plug-In . SVG Version: 6.00 Build 0)  -->
<!DOCTYPE svg PUBLIC "-//W3C//DTD SVG 1.1//EN" "http://www.w3.org/Graphics/SVG/1.1/DTD/svg11.dtd">
<svg version="1.1" id="Layer_1" xmlns="http://www.w3.org/2000/svg" xmlns:xlink="http://www.w3.org/1999/xlink" x="0px" y="0px"
	 width="105px" height="36px" viewBox="14 10.9931641 105 36" enable-background="new 14 10.9931641 105 36" xml:space="preserve">
<path d="M44.7285156,16.2641602c-3.3955078-3.3979492-7.9277344-5.2709961-12.7294922-5.2709961
	c-4.8007812,0-9.3320312,1.8730469-12.7290039,5.2709961C15.8789062,19.6669922,14,24.1860352,14,28.9931641
	c0,4.8066406,1.8789062,9.3261719,5.2709961,12.7285156c3.3959961,3.3984375,7.9272461,5.2714844,12.7280273,5.2714844
	c1.4960938,0,2.9736328-0.1855469,4.3974609-0.5371094L25.6928711,35.7587891h0.0009766
	c-0.0737305-0.0761719-0.1479492-0.1464844-0.2319336-0.2275391c-1.7397461-1.7480469-2.7099609-4.0683594-2.7099609-6.5380859
	s0.9702148-4.7910156,2.7099609-6.5380859c1.7382812-1.75,4.0610352-2.7089844,6.5371094-2.7089844
	c2.4775391,0,4.8007812,0.9599609,6.5390625,2.7089844c1.7392578,1.7480469,2.7089844,4.0683594,2.7089844,6.5380859
	s-0.9697266,4.7910156-2.7089844,6.5380859c-1.2382812,1.2373047-2.7607422,2.0732422-4.4101562,2.4628906l6.6904297,6.6992188
	c1.4199219-0.8017578,2.7304688-1.7919922,3.9101562-2.9716797C48.1201172,38.3193359,50,33.7998047,50,28.9931641
	C50,24.1860352,48.1201172,19.6669922,44.7285156,16.2641602z"/>
<g>
	<path d="M64.5878906,27.65625v-7.3378906h2.9482422c1.4746094,0,2.2988281,1.012207,2.2988281,2.2109375
		c0,1.1992188-0.8359375,2.2114258-2.2988281,2.2114258h-2.0351562V27.65625H64.5878906z M68.8896484,22.5292969
		c0-0.824707-0.5947266-1.3969727-1.4638672-1.3969727h-1.9248047v2.7944336h1.9248047
		C68.2949219,23.9267578,68.8896484,23.3544922,68.8896484,22.5292969z"/>
	<path d="M75.9052734,27.65625l-0.6494141-1.6391602h-3.6523438L70.9550781,27.65625h-1.0458984l2.9599609-7.3378906h1.1328125
		l2.9482422,7.3378906H75.9052734z M73.4296875,21.253418l-1.5507812,3.9604492h3.1132812L73.4296875,21.253418z"/>
	<path d="M77.7929688,24.8066406v-4.4882812h0.9238281v4.4663086c0,1.3422852,0.7148438,2.1894531,2.0683594,2.1894531
		s2.0791016-0.847168,2.0791016-2.1894531v-4.4663086h0.9238281v4.4775391c0,1.8261719-1.0117188,2.9921875-3.0029297,2.9921875
		C78.8046875,27.7880859,77.7929688,26.6113281,77.7929688,24.8066406z"/>
	<path d="M85.6777344,27.65625v-7.3378906h0.9130859v6.5239258h3.4101562V27.65625H85.6777344z"/>
	<path d="M90.6816406,23.9926758c0-2.1674805,1.4736328-3.7954102,3.640625-3.7954102
		c2.1679688,0,3.6533203,1.6279297,3.6533203,3.7954102s-1.4853516,3.7954102-3.6533203,3.7954102
		C92.1552734,27.7880859,90.6816406,26.1601562,90.6816406,23.9926758z M97.0292969,23.9926758
		c0-1.7163086-1.0673828-2.9814453-2.7070312-2.9814453c-1.6494141,0-2.6953125,1.2651367-2.6953125,2.9814453
		c0,1.7050781,1.0458984,2.9814453,2.6953125,2.9814453C95.9619141,26.9741211,97.0292969,25.6977539,97.0292969,23.9926758z"/>
	<path d="M64.2910156,33.9921875c0-2.2548828,1.6611328-3.7949219,3.7734375-3.7949219
		c1.2978516,0,2.2001953,0.6162109,2.7832031,1.4521484l-0.7587891,0.4291992
		c-0.4189453-0.6274414-1.1884766-1.0673828-2.0244141-1.0673828c-1.6064453,0-2.828125,1.2211914-2.828125,2.980957
		c0,1.7402344,1.2216797,2.9824219,2.828125,2.9824219c0.8359375,0,1.6054688-0.4511719,2.0244141-1.0664062l0.7695312,0.4179688
		c-0.6162109,0.8476562-1.4960938,1.4628906-2.7939453,1.4628906
		C65.9521484,37.7890625,64.2910156,36.2480469,64.2910156,33.9921875z"/>
	<path d="M72.1494141,34.8066406v-4.4882812h0.9238281v4.4667969c0,1.3417969,0.7148438,2.1894531,2.0683594,2.1894531
		s2.0791016-0.8476562,2.0791016-2.1894531v-4.4667969h0.9238281v4.4785156c0,1.8261719-1.0117188,2.9921875-3.0029297,2.9921875
		C73.1611328,37.7890625,72.1494141,36.6113281,72.1494141,34.8066406z"/>
	<path d="M79.5292969,36.6230469l0.5498047-0.7050781c0.4736328,0.5507812,1.265625,1.0566406,2.2998047,1.0566406
		c1.3095703,0,1.7275391-0.703125,1.7275391-1.2753906c0-1.8935547-4.3457031-0.8378906-4.3457031-3.4555664
		c0-1.2104492,1.078125-2.0463867,2.5302734-2.0463867c1.1113281,0,1.9804688,0.3847656,2.5957031,1.0341797l-0.5498047,0.6708984
		c-0.5498047-0.6162109-1.3203125-0.8798828-2.1230469-0.8798828c-0.8691406,0-1.5068359,0.4731445-1.5068359,1.1660156
		c0,1.6503906,4.3447266,0.7041016,4.3447266,3.4443359c0,1.0566406-0.7255859,2.15625-2.7060547,2.15625
		C81.0810547,37.7890625,80.1347656,37.3046875,79.5292969,36.6230469z"/>
	<path d="M88.4277344,37.65625v-6.5239258h-2.3212891v-0.8139648h5.5664062v0.8139648h-2.3320312V37.65625H88.4277344z"/>
	<path d="M92.3525391,33.9921875c0-2.1669922,1.4736328-3.7949219,3.640625-3.7949219
		c2.1679688,0,3.6533203,1.6279297,3.6533203,3.7949219c0,2.1679688-1.4853516,3.796875-3.6533203,3.796875
		C93.8261719,37.7890625,92.3525391,36.1601562,92.3525391,33.9921875z M98.7001953,33.9921875
		c0-1.7158203-1.0673828-2.980957-2.7070312-2.980957c-1.6494141,0-2.6953125,1.2651367-2.6953125,2.980957
		c0,1.7070312,1.0458984,2.9824219,2.6953125,2.9824219C97.6328125,36.9746094,98.7001953,35.6992188,98.7001953,33.9921875z"/>
	<path d="M101.2763672,37.65625v-7.3378906h2.5078125c2.2890625,0,3.7626953,1.5952148,3.7626953,3.6738281
		c0,2.0917969-1.4736328,3.6640625-3.7626953,3.6640625H101.2763672z M106.6005859,33.9921875
		c0-1.5834961-1.0009766-2.8598633-2.8164062-2.8598633h-1.5947266V36.84375h1.5947266
		C105.5664062,36.84375,106.6005859,35.5664062,106.6005859,33.9921875z"/>
	<path d="M109.1708984,37.65625v-7.3378906h0.9130859V37.65625H109.1708984z"/>
	<path d="M111.7060547,33.9921875c0-2.1669922,1.4736328-3.7949219,3.640625-3.7949219
		c2.1679688,0,3.6533203,1.6279297,3.6533203,3.7949219c0,2.1679688-1.4853516,3.796875-3.6533203,3.796875
		C113.1796875,37.7890625,111.7060547,36.1601562,111.7060547,33.9921875z M118.0537109,33.9921875
		c0-1.7158203-1.0673828-2.980957-2.7070312-2.980957c-1.6494141,0-2.6953125,1.2651367-2.6953125,2.980957
		c0,1.7070312,1.0458984,2.9824219,2.6953125,2.9824219C116.9863281,36.9746094,118.0537109,35.6992188,118.0537109,33.9921875z"/>
</g>
<path fill="#7F7F7F" d="M110.9931641,97.984375v-5.3320312h1.8222656c1.6630859,0,2.7353516,1.1582031,2.7353516,2.6699219
	c0,1.5195312-1.0722656,2.6621094-2.7353516,2.6621094H110.9931641z M114.8623047,95.3222656
	c0-1.1503906-0.7275391-2.078125-2.046875-2.078125H111.65625v4.1484375h1.1591797
	C114.1113281,97.3925781,114.8623047,96.4667969,114.8623047,95.3222656z"/>
<path fill="#7F7F7F" d="M116.5625,96.0507812c0-1.1191406,0.7998047-2.0234375,1.9023438-2.0234375
	c1.1679688,0,1.8554688,0.9121094,1.8554688,2.0703125V96.25h-3.1181641
	c0.0478516,0.7285156,0.5517578,1.3359375,1.3828125,1.3359375c0.4482422,0,0.8876953-0.1757812,1.1992188-0.4960938
	l0.2880859,0.390625c-0.3916016,0.3847656-0.9111328,0.6015625-1.5351562,0.6015625
	C117.3857422,98.0820312,116.5625,97.2578125,116.5625,96.0507812z M118.4570312,94.5234375
	c-0.8232422,0-1.2314453,0.6953125-1.2626953,1.2792969h2.5341797
	C119.7207031,95.234375,119.3369141,94.5234375,118.4570312,94.5234375z"/>
<path fill="#7F7F7F" d="M121.1572266,97.4726562l0.3037109-0.4316406c0.2558594,0.296875,0.7441406,0.5527344,1.2714844,0.5527344
	c0.5917969,0,0.9199219-0.2792969,0.9199219-0.6640625c0-0.9355469-2.390625-0.359375-2.390625-1.7910156
	c0-0.6074219,0.5117188-1.1113281,1.4306641-1.1113281c0.6640625,0,1.1279297,0.2480469,1.4316406,0.5605469l-0.2802734,0.4140625
	c-0.2314453-0.2792969-0.6474609-0.4863281-1.1513672-0.4863281c-0.5273438,0-0.8554688,0.2636719-0.8554688,0.6074219
	c0,0.8398438,2.390625,0.2871094,2.390625,1.7910156c0,0.6464844-0.5195312,1.1679688-1.5107422,1.1679688
	C122.0771484,98.0820312,121.5498047,97.8808594,121.1572266,97.4726562z"/>
<path fill="#7F7F7F" d="M125.296875,93.171875c0-0.2246094,0.1835938-0.4082031,0.4072266-0.4082031
	s0.4003906,0.1835938,0.4003906,0.4082031s-0.1767578,0.4003906-0.4003906,0.4003906S125.296875,93.3964844,125.296875,93.171875z
	 M125.4003906,97.984375v-3.8613281H126v3.8613281H125.4003906z"/>
<path fill="#7F7F7F" d="M127.3955078,98.96875l0.3037109-0.4316406c0.3203125,0.375,0.703125,0.5195312,1.2548828,0.5195312
	c0.6396484,0,1.2480469-0.3125,1.2480469-1.1269531v-0.5839844c-0.2880859,0.390625-0.7597656,0.6875-1.3037109,0.6875
	c-1.0078125,0-1.71875-0.7519531-1.71875-1.9980469c0-1.2402344,0.703125-2.0078125,1.71875-2.0078125
	c0.5195312,0,0.9912109,0.2558594,1.3037109,0.6796875v-0.5839844h0.5996094v3.8066406
	c0,1.2226562-0.9033203,1.6230469-1.8476562,1.6230469C128.3066406,99.5527344,127.859375,99.4238281,127.3955078,98.96875z
	 M130.2021484,96.8730469v-1.6953125c-0.2158203-0.3261719-0.6796875-0.6152344-1.1513672-0.6152344
	c-0.7841797,0-1.2480469,0.6152344-1.2480469,1.4726562c0,0.8457031,0.4638672,1.4628906,1.2480469,1.4628906
	C129.5224609,97.4980469,129.9863281,97.2089844,130.2021484,96.8730469z"/>
<path fill="#7F7F7F" d="M134.8212891,97.984375v-2.5253906c0-0.6875-0.3515625-0.8964844-0.8710938-0.8964844
	c-0.4716797,0-0.9111328,0.2890625-1.1435547,0.5996094v2.8222656h-0.5996094v-3.8613281h0.5996094v0.5605469
	c0.2714844-0.328125,0.7998047-0.65625,1.3837891-0.65625c0.7988281,0,1.2226562,0.4082031,1.2226562,1.2480469v2.7089844
	H134.8212891z"/>
<path fill="#7F7F7F" d="M138.8789062,98.1445312v-5.6523438h0.4394531v5.6523438H138.8789062z"/>
<path fill="#7F7F7F" d="M142.7988281,97.984375v-5.3320312h1.8222656c1.6630859,0,2.734375,1.1582031,2.734375,2.6699219
	c0,1.5195312-1.0712891,2.6621094-2.734375,2.6621094H142.7988281z M146.6679688,95.3222656
	c0-1.1503906-0.7275391-2.078125-2.046875-2.078125h-1.1591797v4.1484375h1.1591797
	C145.9169922,97.3925781,146.6679688,96.4667969,146.6679688,95.3222656z"/>
<path fill="#7F7F7F" d="M148.3681641,96.0507812c0-1.1191406,0.7998047-2.0234375,1.9023438-2.0234375
	c1.1679688,0,1.8554688,0.9121094,1.8554688,2.0703125V96.25h-3.1181641
	c0.0478516,0.7285156,0.5517578,1.3359375,1.3828125,1.3359375c0.4482422,0,0.8876953-0.1757812,1.1992188-0.4960938
	l0.2880859,0.390625c-0.3916016,0.3847656-0.9111328,0.6015625-1.5351562,0.6015625
	C149.1914062,98.0820312,148.3681641,97.2578125,148.3681641,96.0507812z M150.2626953,94.5234375
	c-0.8232422,0-1.2314453,0.6953125-1.2626953,1.2792969h2.5341797
	C151.5263672,95.234375,151.1425781,94.5234375,150.2626953,94.5234375z"/>
<path fill="#7F7F7F" d="M154.2636719,97.984375l-1.6064453-3.8613281H153.3125l1.2792969,3.1660156l1.2871094-3.1660156h0.6474609
	l-1.6064453,3.8613281H154.2636719z"/>
<path fill="#7F7F7F" d="M157.0527344,96.0507812c0-1.1191406,0.7998047-2.0234375,1.9023438-2.0234375
	c1.1679688,0,1.8554688,0.9121094,1.8554688,2.0703125V96.25h-3.1181641
	c0.0478516,0.7285156,0.5517578,1.3359375,1.3828125,1.3359375c0.4482422,0,0.8876953-0.1757812,1.1992188-0.4960938
	l0.2880859,0.390625c-0.3916016,0.3847656-0.9111328,0.6015625-1.5351562,0.6015625
	C157.8759766,98.0820312,157.0527344,97.2578125,157.0527344,96.0507812z M158.9472656,94.5234375
	c-0.8232422,0-1.2314453,0.6953125-1.2626953,1.2792969h2.5341797
	C160.2109375,95.234375,159.8271484,94.5234375,158.9472656,94.5234375z"/>
<path fill="#7F7F7F" d="M161.9960938,97.984375v-5.3320312h0.5996094v5.3320312H161.9960938z"/>
<path fill="#7F7F7F" d="M163.7871094,96.0507812c0-1.1191406,0.7353516-2.0234375,1.9111328-2.0234375
	c1.1748047,0,1.9101562,0.9042969,1.9101562,2.0234375s-0.7353516,2.03125-1.9101562,2.03125
	C164.5224609,98.0820312,163.7871094,97.1699219,163.7871094,96.0507812z M166.9775391,96.0507812
	c0-0.7832031-0.4560547-1.4882812-1.2792969-1.4882812c-0.8242188,0-1.2792969,0.7050781-1.2792969,1.4882812
	c0,0.7910156,0.4550781,1.4941406,1.2792969,1.4941406C166.5214844,97.5449219,166.9775391,96.8417969,166.9775391,96.0507812z"/>
<path fill="#7F7F7F" d="M169.4013672,97.4023438v2.0546875h-0.5996094v-5.3339844h0.5996094v0.5761719
	c0.2802734-0.3925781,0.7597656-0.671875,1.3037109-0.671875c1.015625,0,1.71875,0.7675781,1.71875,2.0234375
	c0,1.2460938-0.703125,2.03125-1.71875,2.03125C170.1767578,98.0820312,169.7216797,97.8261719,169.4013672,97.4023438z
	 M171.7919922,96.0507812c0-0.8554688-0.4638672-1.4882812-1.2392578-1.4882812c-0.4716797,0-0.9433594,0.28125-1.1513672,0.6152344
	v1.7441406c0.2080078,0.3359375,0.6796875,0.6230469,1.1513672,0.6230469
	C171.328125,97.5449219,171.7919922,96.90625,171.7919922,96.0507812z"/>
<path fill="#7F7F7F" d="M178.2773438,97.984375v-2.6210938c0-0.4882812-0.2070312-0.8007812-0.7109375-0.8007812
	c-0.4003906,0-0.8242188,0.28125-1.0234375,0.5917969v2.8300781h-0.5996094v-2.6210938
	c0-0.4882812-0.2001953-0.8007812-0.7119141-0.8007812c-0.3916016,0-0.8076172,0.2890625-1.015625,0.5996094v2.8222656h-0.5996094
	v-3.8613281h0.5996094v0.5605469c0.1679688-0.2480469,0.6796875-0.65625,1.2558594-0.65625
	c0.5830078,0,0.9189453,0.3203125,1.03125,0.71875c0.2158203-0.3515625,0.7353516-0.71875,1.2949219-0.71875
	c0.7041016,0,1.0791016,0.3925781,1.0791016,1.1679688v2.7890625H178.2773438z"/>
<path fill="#7F7F7F" d="M180.0683594,96.0507812c0-1.1191406,0.7998047-2.0234375,1.9023438-2.0234375
	c1.1679688,0,1.8554688,0.9121094,1.8554688,2.0703125V96.25h-3.1181641
	c0.0478516,0.7285156,0.5517578,1.3359375,1.3828125,1.3359375c0.4482422,0,0.8876953-0.1757812,1.1992188-0.4960938
	l0.2880859,0.390625c-0.3916016,0.3847656-0.9111328,0.6015625-1.5351562,0.6015625
	C180.8916016,98.0820312,180.0683594,97.2578125,180.0683594,96.0507812z M181.9628906,94.5234375
	c-0.8232422,0-1.2314453,0.6953125-1.2626953,1.2792969h2.5341797
	C183.2265625,95.234375,182.8427734,94.5234375,181.9628906,94.5234375z"/>
<path fill="#7F7F7F" d="M187.6210938,97.984375v-2.5253906c0-0.6875-0.3515625-0.8964844-0.8710938-0.8964844
	c-0.4716797,0-0.9111328,0.2890625-1.1435547,0.5996094v2.8222656h-0.5996094v-3.8613281h0.5996094v0.5605469
	c0.2724609-0.328125,0.7998047-0.65625,1.3837891-0.65625c0.7988281,0,1.2226562,0.4082031,1.2226562,1.2480469v2.7089844
	H187.6210938z"/>
<path fill="#7F7F7F" d="M189.7646484,97.1777344v-2.5273438H189.125v-0.5273438h0.6396484v-1.0546875h0.6074219v1.0546875h0.7841797
	v0.5273438h-0.7841797v2.3984375c0,0.2890625,0.1279297,0.4960938,0.3837891,0.4960938
	c0.1757812,0,0.328125-0.0800781,0.4082031-0.1679688l0.1757812,0.4570312
	c-0.1523438,0.1425781-0.3681641,0.2480469-0.7119141,0.2480469
	C190.0527344,98.0820312,189.7646484,97.7539062,189.7646484,97.1777344z"/>
<path fill="#7F7F7F" d="M194.2529297,98.1445312v-5.6523438h0.4394531v5.6523438H194.2529297z"/>
<path fill="#7F7F7F" d="M198.1728516,97.984375v-5.3320312h1.8222656c1.6630859,0,2.7353516,1.1582031,2.7353516,2.6699219
	c0,1.5195312-1.0722656,2.6621094-2.7353516,2.6621094H198.1728516z M202.0419922,95.3222656
	c0-1.1503906-0.7275391-2.078125-2.046875-2.078125h-1.1591797v4.1484375h1.1591797
	C201.2910156,97.3925781,202.0419922,96.4667969,202.0419922,95.3222656z"/>
<path fill="#7F7F7F" d="M203.875,93.171875c0-0.2246094,0.1835938-0.4082031,0.4072266-0.4082031
	s0.4003906,0.1835938,0.4003906,0.4082031s-0.1767578,0.4003906-0.4003906,0.4003906S203.875,93.3964844,203.875,93.171875z
	 M203.9785156,97.984375v-3.8613281h0.5996094v3.8613281H203.9785156z"/>
<path fill="#7F7F7F" d="M205.9736328,98.96875l0.3037109-0.4316406c0.3203125,0.375,0.703125,0.5195312,1.2548828,0.5195312
	c0.6396484,0,1.2480469-0.3125,1.2480469-1.1269531v-0.5839844c-0.2880859,0.390625-0.7597656,0.6875-1.3037109,0.6875
	c-1.0078125,0-1.71875-0.7519531-1.71875-1.9980469c0-1.2402344,0.703125-2.0078125,1.71875-2.0078125
	c0.5195312,0,0.9912109,0.2558594,1.3037109,0.6796875v-0.5839844h0.5996094v3.8066406
	c0,1.2226562-0.9033203,1.6230469-1.8476562,1.6230469C206.8847656,99.5527344,206.4375,99.4238281,205.9736328,98.96875z
	 M208.7802734,96.8730469v-1.6953125c-0.2158203-0.3261719-0.6796875-0.6152344-1.1513672-0.6152344
	c-0.7841797,0-1.2480469,0.6152344-1.2480469,1.4726562c0,0.8457031,0.4638672,1.4628906,1.2480469,1.4628906
	C208.1005859,97.4980469,208.5644531,97.2089844,208.7802734,96.8730469z"/>
<path fill="#7F7F7F" d="M210.6875,93.171875c0-0.2246094,0.1835938-0.4082031,0.4072266-0.4082031
	s0.4003906,0.1835938,0.4003906,0.4082031s-0.1767578,0.4003906-0.4003906,0.4003906S210.6875,93.3964844,210.6875,93.171875z
	 M210.7910156,97.984375v-3.8613281h0.5996094v3.8613281H210.7910156z"/>
<path fill="#7F7F7F" d="M212.9550781,97.1777344v-2.5273438h-0.6396484v-0.5273438h0.6396484v-1.0546875H213.5625v1.0546875
	h0.7832031v0.5273438H213.5625v2.3984375c0,0.2890625,0.1279297,0.4960938,0.3837891,0.4960938
	c0.1757812,0,0.328125-0.0800781,0.4082031-0.1679688l0.1757812,0.4570312
	c-0.1523438,0.1425781-0.3681641,0.2480469-0.7119141,0.2480469
	C213.2431641,98.0820312,212.9550781,97.7539062,212.9550781,97.1777344z"/>
<path fill="#7F7F7F" d="M217.8457031,97.984375v-0.4394531c-0.3125,0.3515625-0.7597656,0.5371094-1.2792969,0.5371094
	c-0.6484375,0-1.34375-0.4414062-1.34375-1.2792969c0-0.8730469,0.6875-1.2714844,1.34375-1.2714844
	c0.5273438,0,0.9667969,0.1679688,1.2792969,0.5195312v-0.6953125c0-0.5117188-0.4160156-0.8085938-0.9755859-0.8085938
	c-0.4638672,0-0.8398438,0.1601562-1.1835938,0.5351562l-0.2802734-0.4160156
	c0.4160156-0.4316406,0.9121094-0.6386719,1.5439453-0.6386719c0.8232422,0,1.4951172,0.3671875,1.4951172,1.3027344v2.6542969
	H217.8457031z M217.8457031,97.1699219v-0.7363281c-0.2324219-0.3105469-0.6396484-0.4707031-1.0556641-0.4707031
	c-0.5673828,0-0.9599609,0.3515625-0.9599609,0.8398438c0,0.4941406,0.3925781,0.8457031,0.9599609,0.8457031
	C217.2060547,97.6484375,217.6132812,97.4902344,217.8457031,97.1699219z"/>
<path fill="#7F7F7F" d="M219.8535156,97.984375v-5.3320312h0.5996094v5.3320312H219.8535156z"/>
<path fill="#7F7F7F" d="M228.4667969,97.984375V93.5l-1.8076172,4.484375h-0.2714844L224.5722656,93.5v4.484375h-0.6630859
	v-5.3320312h0.9511719l1.6630859,4.109375l1.6552734-4.109375h0.9511719v5.3320312H228.4667969z"/>
<path fill="#7F7F7F" d="M233.0263672,97.984375v-0.4394531c-0.3125,0.3515625-0.7597656,0.5371094-1.2792969,0.5371094
	c-0.6474609,0-1.34375-0.4414062-1.34375-1.2792969c0-0.8730469,0.6875-1.2714844,1.34375-1.2714844
	c0.5273438,0,0.9667969,0.1679688,1.2792969,0.5195312v-0.6953125c0-0.5117188-0.4160156-0.8085938-0.9755859-0.8085938
	c-0.4638672,0-0.8398438,0.1601562-1.1835938,0.5351562l-0.2792969-0.4160156
	c0.4150391-0.4316406,0.9111328-0.6386719,1.5429688-0.6386719c0.8232422,0,1.4951172,0.3671875,1.4951172,1.3027344v2.6542969
	H233.0263672z M233.0263672,97.1699219v-0.7363281c-0.2324219-0.3105469-0.6396484-0.4707031-1.0556641-0.4707031
	c-0.5673828,0-0.9599609,0.3515625-0.9599609,0.8398438c0,0.4941406,0.3925781,0.8457031,0.9599609,0.8457031
	C232.3867188,97.6484375,232.7939453,97.4902344,233.0263672,97.1699219z"/>
<path fill="#7F7F7F" d="M235.0351562,97.984375v-3.8613281h0.5996094v0.6152344
	c0.3115234-0.3984375,0.7597656-0.703125,1.2871094-0.703125v0.6152344c-0.0712891-0.0078125-0.1435547-0.015625-0.2314453-0.015625
	c-0.3759766,0-0.8798828,0.3046875-1.0556641,0.6152344v2.734375H235.0351562z"/>
<path fill="#7F7F7F" d="M240.5205078,97.984375L239.1367188,96.25l-0.6474609,0.6308594v1.1035156h-0.5996094v-5.3320312h0.5996094
	v3.5253906l2.03125-2.0546875h0.7597656L239.5683594,95.875l1.7197266,2.109375H240.5205078z"/>
<path fill="#7F7F7F" d="M241.8056641,96.0507812c0-1.1191406,0.7998047-2.0234375,1.9023438-2.0234375
	c1.1679688,0,1.8554688,0.9121094,1.8554688,2.0703125V96.25h-3.1181641
	c0.0478516,0.7285156,0.5517578,1.3359375,1.3828125,1.3359375c0.4482422,0,0.8876953-0.1757812,1.1992188-0.4960938
	l0.2880859,0.390625c-0.3916016,0.3847656-0.9111328,0.6015625-1.5351562,0.6015625
	C242.6289062,98.0820312,241.8056641,97.2578125,241.8056641,96.0507812z M243.7001953,94.5234375
	c-0.8232422,0-1.2314453,0.6953125-1.2626953,1.2792969h2.5341797
	C244.9638672,95.234375,244.5800781,94.5234375,243.7001953,94.5234375z"/>
<path fill="#7F7F7F" d="M246.8496094,97.1777344v-2.5273438h-0.6396484v-0.5273438h0.6396484v-1.0546875h0.6074219v1.0546875
	h0.7832031v0.5273438h-0.7832031v2.3984375c0,0.2890625,0.1279297,0.4960938,0.3837891,0.4960938
	c0.1757812,0,0.328125-0.0800781,0.4082031-0.1679688l0.1757812,0.4570312
	c-0.1523438,0.1425781-0.3681641,0.2480469-0.7119141,0.2480469
	C247.1376953,98.0820312,246.8496094,97.7539062,246.8496094,97.1777344z"/>
<path fill="#7F7F7F" d="M249.2373047,93.171875c0-0.2246094,0.1835938-0.4082031,0.4072266-0.4082031
	s0.4003906,0.1835938,0.4003906,0.4082031s-0.1767578,0.4003906-0.4003906,0.4003906S249.2373047,93.3964844,249.2373047,93.171875z
	 M249.3408203,97.984375v-3.8613281h0.5996094v3.8613281H249.3408203z"/>
<path fill="#7F7F7F" d="M253.9570312,97.984375v-2.5253906c0-0.6875-0.3515625-0.8964844-0.8710938-0.8964844
	c-0.4716797,0-0.9111328,0.2890625-1.1435547,0.5996094v2.8222656h-0.5996094v-3.8613281h0.5996094v0.5605469
	c0.2724609-0.328125,0.7998047-0.65625,1.3837891-0.65625c0.7988281,0,1.2226562,0.4082031,1.2226562,1.2480469v2.7089844
	H253.9570312z"/>
<path fill="#7F7F7F" d="M255.9628906,98.96875l0.3037109-0.4316406c0.3193359,0.375,0.7041016,0.5195312,1.2548828,0.5195312
	c0.6396484,0,1.2480469-0.3125,1.2480469-1.1269531v-0.5839844c-0.2880859,0.390625-0.7597656,0.6875-1.3037109,0.6875
	c-1.0068359,0-1.71875-0.7519531-1.71875-1.9980469c0-1.2402344,0.703125-2.0078125,1.71875-2.0078125
	c0.5195312,0,0.9912109,0.2558594,1.3037109,0.6796875v-0.5839844h0.5996094v3.8066406
	c0,1.2226562-0.9033203,1.6230469-1.8476562,1.6230469C256.8740234,99.5527344,256.4267578,99.4238281,255.9628906,98.96875z
	 M258.7695312,96.8730469v-1.6953125c-0.2158203-0.3261719-0.6796875-0.6152344-1.1513672-0.6152344
	c-0.7841797,0-1.2480469,0.6152344-1.2480469,1.4726562c0,0.8457031,0.4638672,1.4628906,1.2480469,1.4628906
	C258.0898438,97.4980469,258.5537109,97.2089844,258.7695312,96.8730469z"/>
<text transform="matrix(1 0 0 1 50 127)"><tspan x="0" y="0" font-family="'ProximaNova-Regular'" font-size="11">P</tspan><tspan x="6.0810547" y="0" font-family="'ProximaNova-Regular'" font-size="11">A</tspan><tspan x="13.2060547" y="0" font-family="'ProximaNova-Regular'" font-size="11">U</tspan><tspan x="21.2119141" y="0" font-family="'ProximaNova-Regular'" font-size="11">L</tspan><tspan x="26.3916016" y="0" font-family="'ProximaNova-Regular'" font-size="11">O </tspan><tspan x="0" y="10" font-family="'ProximaNova-Regular'" font-size="11">C</tspan><tspan x="7.5605469" y="10" font-family="'ProximaNova-Regular'" font-size="11">U</tspan><tspan x="15.3818359" y="10" font-family="'ProximaNova-Regular'" font-size="11">S</tspan><tspan x="22.0244141" y="10" font-family="'ProximaNova-Regular'" font-size="11">T</tspan><tspan x="28.0615234" y="10" font-family="'ProximaNova-Regular'" font-size="11">O</tspan><tspan x="36.6875" y="10" font-family="'ProximaNova-Regular'" font-size="11">D</tspan><tspan x="44.5830078" y="10" font-family="'ProximaNova-Regular'" font-size="11">I</tspan><tspan x="47.4150391" y="10" font-family="'ProximaNova-Regular'" font-size="11">O </tspan><tspan x="0" y="22" fill="#7F7F7F" font-family="'ProximaNova-Regular'" font-size="8">D</tspan><tspan x="5.8173828" y="22" fill="#7F7F7F" font-family="'ProximaNova-Regular'" font-size="8">es</tspan><tspan x="14.4316406" y="22" fill="#7F7F7F" font-family="'ProximaNova-Regular'" font-size="8">ig</tspan><tspan x="21.2373047" y="22" fill="#7F7F7F" font-family="'ProximaNova-Regular'" font-size="8">n | </tspan><tspan x="31.8046875" y="22" fill="#7F7F7F" font-family="'ProximaNova-Regular'" font-size="8">D</tspan><tspan x="37.6220703" y="22" fill="#7F7F7F" font-family="'ProximaNova-Regular'" font-size="8">e</tspan><tspan x="42.2626953" y="22" fill="#7F7F7F" font-family="'ProximaNova-Regular'" font-size="8">v</tspan><tspan x="46.3066406" y="22" fill="#7F7F7F" font-family="'ProximaNova-Regular'" font-size="8">elo</tspan><tspan x="57.8320312" y="22" fill="#7F7F7F" font-family="'ProximaNova-Regular'" font-size="8">p</tspan><tspan x="62.6474609" y="22" fill="#7F7F7F" font-family="'ProximaNova-Regular'" font-size="8">me</tspan><tspan x="74.0371094" y="22" fill="#7F7F7F" font-family="'ProximaNova-Regular'" font-size="8">n</tspan><tspan x="78.6748047" y="22" fill="#7F7F7F" font-family="'ProximaNova-Regular'" font-size="8">t | </tspan><tspan x="87.1787109" y="22" fill="#7F7F7F" font-family="'ProximaNova-Regular'" font-size="8">D</tspan><tspan x="93.0087891" y="22" fill="#7F7F7F" font-family="'ProximaNova-Regular'" font-size="8">i</tspan><tspan x="95.0117188" y="22" fill="#7F7F7F" font-family="'ProximaNova-Regular'" font-size="8">g</tspan><tspan x="99.8203125" y="22" fill="#7F7F7F" font-family="'ProximaNova-Regular'" font-size="8">it</tspan><tspan x="104.4599609" y="22" fill="#7F7F7F" font-family="'ProximaNova-Regular'" font-size="8">a</tspan><tspan x="108.8818359" y="22" fill="#7F7F7F" font-family="'ProximaNova-Regular'" font-size="8">l </tspan><tspan x="112.9140625" y="22" fill="#7F7F7F" font-family="'ProximaNova-Regular'" font-size="8">M</tspan><tspan x="119.640625" y="22" fill="#7F7F7F" font-family="'ProximaNova-Regular'" font-size="8">a</tspan><tspan x="124.0634766" y="22" fill="#7F7F7F" font-family="'ProximaNova-Regular'" font-size="8">r</tspan><tspan x="126.9179688" y="22" fill="#7F7F7F" font-family="'ProximaNova-Regular'" font-size="8">k</tspan><tspan x="131.0585938" y="22" fill="#7F7F7F" font-family="'ProximaNova-Regular'" font-size="8">e</tspan><tspan x="135.7578125" y="22" fill="#7F7F7F" font-family="'ProximaNova-Regular'" font-size="8">t</tspan><tspan x="138.3691406" y="22" fill="#7F7F7F" font-family="'ProximaNova-Regular'" font-size="8">i</tspan><tspan x="140.3710938" y="22" fill="#7F7F7F" font-family="'ProximaNova-Regular'" font-size="8">n</tspan><tspan x="144.9990234" y="22" fill="#7F7F7F" font-family="'ProximaNova-Regular'" font-size="8">g</tspan></text>
</svg>
