<?xml version="1.0" encoding="utf-8"?>
<!-- Generator: Adobe Illustrator 24.1.3, SVG Export Plug-In . SVG Version: 6.00 Build 0)  -->
<svg version="1.1" id="Layer_1" xmlns="http://www.w3.org/2000/svg" xmlns:xlink="http://www.w3.org/1999/xlink" x="0px" y="0px"
	 viewBox="14 10.9932108 101.031395 36" enable-background="new 14 10.9932108 101.031395 36" xml:space="preserve">
<path d="M44.7284927,16.2642097c-3.3954926-3.3979988-7.9277-5.270999-12.7294922-5.270999
	c-4.800808,0-9.3320007,1.8730001-12.7290001,5.270999C15.8788929,19.6669998,14,24.1859989,14,28.9932098
	c0,4.8065987,1.8788929,9.3260994,5.2709999,12.7285004c3.3959999,3.3983994,7.9271927,5.2714996,12.7280006,5.2714996
	c1.4960938,0,2.97369-0.1856003,4.3974915-0.5371017L25.6928921,35.758812h0.0009003
	c-0.0737-0.0762024-0.1478996-0.1465034-0.2318993-0.2276001c-1.7397003-1.7480011-2.7098923-4.0683022-2.7098923-6.538002
	c0-2.469799,0.970192-4.7910995,2.7098923-6.5380993c1.7383003-1.75,4.0609989-2.7089996,6.5371075-2.7089996
	c2.4775925,0,4.8007927,0.9599991,6.539093,2.7089996c1.7392006,1.7479992,2.7089996,4.0683002,2.7089996,6.5380993
	c0,2.4696999-0.969799,4.7910004-2.7089996,6.538002c-1.2383003,1.2374001-2.7607994,2.0732994-4.410202,2.4628983
	l6.6905022,6.6992989c1.419899-0.8017998,2.7304001-1.7919998,3.910099-2.9716988
	C48.1200905,38.3193092,50,33.7998085,50,28.9932098C50,24.1859989,48.1200905,19.6669998,44.7284927,16.2642097z"/>
<g>
	<path d="M65.0009766,20.6548309h2.9277344c1.3994141,0,2.1787109,0.9594727,2.1787109,2.0888672
		s-0.7890625,2.0888672-2.1787109,2.0888672h-1.7587891v2.4887695h-1.1689453V20.6548309z M67.7695312,21.6846161h-1.5996094
		v2.1186523h1.5996094c0.6591797,0,1.1386719-0.4199219,1.1386719-1.0595703S68.4287109,21.6846161,67.7695312,21.6846161z"/>
	<path d="M75.2099609,26.042038h-3.1582031l-0.4902344,1.2792969h-1.2792969l2.6191406-6.6665039h1.4589844l2.6181641,6.6665039
		h-1.2792969L75.2099609,26.042038z M72.3808594,25.0127411h2.4990234l-1.2490234-3.3681641L72.3808594,25.0127411z"/>
	<path d="M77.8447266,20.6548309h1.1787109v3.9980469c0,1.0595703,0.5898438,1.7490234,1.7089844,1.7490234
		c1.109375,0,1.6992188-0.6894531,1.6992188-1.7490234v-3.9980469h1.1796875v4.027832
		c0,1.6591797-0.9492188,2.7587891-2.8789062,2.7587891c-1.9384766,0-2.8876953-1.109375-2.8876953-2.7485352V20.6548309z"/>
	<path d="M85.4775391,20.6548309h1.1689453v5.637207h2.9384766v1.0292969h-4.1074219V20.6548309z"/>
	<path d="M93.8271484,20.5449677c1.9980469,0,3.4072266,1.4594727,3.4072266,3.4482422s-1.4091797,3.4482422-3.4072266,3.4482422
		c-1.9990234,0-3.4082031-1.4594727-3.4082031-3.4482422S91.828125,20.5449677,93.8271484,20.5449677z M93.8271484,21.5845184
		c-1.3496094,0-2.2089844,1.0292969-2.2089844,2.4086914c0,1.3691406,0.859375,2.4086914,2.2089844,2.4086914
		c1.3388672,0,2.2080078-1.0395508,2.2080078-2.4086914C96.0351562,22.6138153,95.1660156,21.5845184,93.8271484,21.5845184z"/>
	<path d="M64.7011719,33.9932098c0-2.0488281,1.5283203-3.4482422,3.4472656-3.4482422
		c1.3994141,0,2.2294922,0.699707,2.7285156,1.4990234l-0.9990234,0.5097656
		c-0.3193359-0.5493164-0.9589844-0.9692383-1.7294922-0.9692383c-1.2685547,0-2.2480469,1.0092773-2.2480469,2.4086914
		s0.9794922,2.4091797,2.2480469,2.4091797c0.7705078,0,1.4101562-0.4101562,1.7294922-0.9697266l0.9990234,0.5097656
		c-0.5097656,0.7998047-1.3291016,1.4990234-2.7285156,1.4990234C66.2294922,37.441452,64.7011719,36.042038,64.7011719,33.9932098z
		"/>
	<path d="M71.8710938,30.6548309h1.1787109v3.9985352c0,1.0595703,0.5898438,1.7490234,1.7089844,1.7490234
		c1.109375,0,1.6992188-0.6894531,1.6992188-1.7490234v-3.9985352h1.1796875v4.027832
		c0,1.6591797-0.9492188,2.7587891-2.8789062,2.7587891c-1.9384766,0-2.8876953-1.109375-2.8876953-2.7480469V30.6548309z"/>
	<path d="M79.3300781,35.4824677c0.4599609,0.4902344,1.1787109,0.9199219,2.1083984,0.9199219
		c0.9599609,0,1.3398438-0.4697266,1.3398438-0.9101562c0-0.5996094-0.7099609-0.7792969-1.5195312-0.9892578
		c-1.0898438-0.2695312-2.3691406-0.5898438-2.3691406-1.9990234c0-1.0996094,0.9697266-1.9487305,2.4287109-1.9487305
		c1.0400391,0,1.8789062,0.3295898,2.4990234,0.9291992l-0.6699219,0.8696289
		c-0.5195312-0.5195312-1.2294922-0.7597656-1.9287109-0.7597656c-0.6894531,0-1.1289062,0.3300781-1.1289062,0.8295898
		c0,0.5200195,0.6796875,0.6899414,1.46875,0.8896484c1.0996094,0.2802734,2.4091797,0.6201172,2.4091797,2.0693359
		c0,1.109375-0.7802734,2.0585938-2.5791016,2.0585938c-1.2294922,0-2.1191406-0.4296875-2.7080078-1.0595703L79.3300781,35.4824677
		z"/>
	<path d="M86.7246094,31.6846161h-2.0185547v-1.0297852h5.2070312v1.0297852h-2.0195312v5.6367188h-1.1689453V31.6846161z"/>
	<path d="M93.8291016,30.5449677c1.9980469,0,3.4072266,1.4594727,3.4072266,3.4482422
		c0,1.9892578-1.4091797,3.4482422-3.4072266,3.4482422c-1.9990234,0-3.4082031-1.4589844-3.4082031-3.4482422
		C90.4208984,32.0044403,91.8300781,30.5449677,93.8291016,30.5449677z M93.8291016,31.5845184
		c-1.3496094,0-2.2089844,1.0292969-2.2089844,2.4086914c0,1.3691406,0.859375,2.4091797,2.2089844,2.4091797
		c1.3388672,0,2.2080078-1.0400391,2.2080078-2.4091797C96.0371094,32.6138153,95.1679688,31.5845184,93.8291016,31.5845184z"/>
	<path d="M98.4931641,30.6548309h2.4785156c2.0791016,0,3.4882812,1.3793945,3.4882812,3.3383789
		s-1.4091797,3.328125-3.4882812,3.328125h-2.4785156V30.6548309z M100.9716797,36.292038
		c1.4492188,0,2.2880859-1.0390625,2.2880859-2.2988281c0-1.2895508-0.7988281-2.3085938-2.2880859-2.3085938h-1.3095703v4.6074219
		H100.9716797z"/>
	<path d="M105.7226562,30.6548309h1.1689453v6.6665039h-1.1689453V30.6548309z"/>
	<path d="M111.5419922,30.5449677c1.9980469,0,3.4072266,1.4594727,3.4072266,3.4482422
		c0,1.9892578-1.4091797,3.4482422-3.4072266,3.4482422c-1.9990234,0-3.4082031-1.4589844-3.4082031-3.4482422
		C108.1337891,32.0044403,109.5429688,30.5449677,111.5419922,30.5449677z M111.5419922,31.5845184
		c-1.3496094,0-2.2089844,1.0292969-2.2089844,2.4086914c0,1.3691406,0.859375,2.4091797,2.2089844,2.4091797
		c1.3388672,0,2.2080078-1.0400391,2.2080078-2.4091797C113.75,32.6138153,112.8808594,31.5845184,111.5419922,31.5845184z"/>
</g>
</svg>
